<mxfile host="app.diagrams.net" modified="2023-01-11T13:25:46.407Z" agent="5.0 (Windows NT 10.0; Win64; x64) AppleWebKit/537.36 (KHTML, like Gecko) Chrome/108.0.0.0 Safari/537.36" etag="XoovIuV2ZcIwukAmvYQX" version="20.8.3" type="github">
  <diagram name="Page-1" id="0783ab3e-0a74-02c8-0abd-f7b4e66b4bec">
    <mxGraphModel dx="1985" dy="894" grid="1" gridSize="10" guides="1" tooltips="1" connect="1" arrows="1" fold="1" page="1" pageScale="1" pageWidth="850" pageHeight="1100" background="none" math="0" shadow="0">
      <root>
        <mxCell id="0" />
        <mxCell id="1" parent="0" />
        <mxCell id="1c1d494c118603dd-1" value="&lt;i&gt;Activity Diagram&lt;/i&gt;&amp;nbsp;&lt;i&gt;View Offline Mode Configuration&lt;/i&gt;" style="swimlane;html=1;childLayout=stackLayout;startSize=20;rounded=0;shadow=0;comic=0;labelBackgroundColor=none;strokeWidth=1;fontFamily=Verdana;fontSize=12;align=center;" parent="1" vertex="1">
          <mxGeometry x="85" y="160" width="880" height="1510" as="geometry" />
        </mxCell>
        <mxCell id="1c1d494c118603dd-2" value="&lt;i&gt;User&lt;/i&gt;" style="swimlane;html=1;startSize=20;" parent="1c1d494c118603dd-1" vertex="1">
          <mxGeometry y="20" width="320" height="1490" as="geometry">
            <mxRectangle y="20" width="40" height="970" as="alternateBounds" />
          </mxGeometry>
        </mxCell>
        <mxCell id="60571a20871a0731-4" value="" style="ellipse;whiteSpace=wrap;html=1;rounded=0;shadow=0;comic=0;labelBackgroundColor=none;strokeWidth=1;fillColor=#000000;fontFamily=Verdana;fontSize=12;align=center;" parent="1c1d494c118603dd-2" vertex="1">
          <mxGeometry x="140" y="40" width="40" height="40" as="geometry" />
        </mxCell>
        <mxCell id="60571a20871a0731-8" value="Menekan &lt;i&gt;border&lt;/i&gt;&amp;nbsp;profil foto" style="rounded=1;whiteSpace=wrap;html=1;shadow=0;comic=0;labelBackgroundColor=none;strokeWidth=1;fontFamily=Verdana;fontSize=12;align=center;arcSize=50;" parent="1c1d494c118603dd-2" vertex="1">
          <mxGeometry x="72.5" y="105" width="175" height="35" as="geometry" />
        </mxCell>
        <mxCell id="1c1d494c118603dd-27" style="rounded=0;html=1;labelBackgroundColor=none;startArrow=none;startFill=0;startSize=5;endArrow=classicThin;endFill=1;endSize=5;jettySize=auto;orthogonalLoop=1;strokeWidth=1;fontFamily=Verdana;fontSize=12" parent="1c1d494c118603dd-2" source="60571a20871a0731-4" target="60571a20871a0731-8" edge="1">
          <mxGeometry relative="1" as="geometry" />
        </mxCell>
        <mxCell id="d6DUmIdaFf7Irw5CP_DO-7" value="Menekan menu &lt;i&gt;Offline Mode Configuration&lt;/i&gt;" style="rounded=1;whiteSpace=wrap;html=1;shadow=0;comic=0;labelBackgroundColor=none;strokeWidth=1;fontFamily=Verdana;fontSize=12;align=center;arcSize=50;" vertex="1" parent="1c1d494c118603dd-2">
          <mxGeometry x="81.25" y="440" width="157.5" height="35" as="geometry" />
        </mxCell>
        <mxCell id="d6DUmIdaFf7Irw5CP_DO-2" style="edgeStyle=orthogonalEdgeStyle;rounded=0;orthogonalLoop=1;jettySize=auto;html=1;exitX=1;exitY=0.5;exitDx=0;exitDy=0;entryX=0;entryY=0.5;entryDx=0;entryDy=0;" edge="1" parent="1c1d494c118603dd-1" source="60571a20871a0731-8" target="d6DUmIdaFf7Irw5CP_DO-1">
          <mxGeometry relative="1" as="geometry" />
        </mxCell>
        <mxCell id="d6DUmIdaFf7Irw5CP_DO-10" style="edgeStyle=orthogonalEdgeStyle;rounded=0;orthogonalLoop=1;jettySize=auto;html=1;exitX=0.5;exitY=1;exitDx=0;exitDy=0;entryX=0.5;entryY=0;entryDx=0;entryDy=0;" edge="1" parent="1c1d494c118603dd-1" source="9redM43dmEc5Fs1zs8RA-35" target="d6DUmIdaFf7Irw5CP_DO-7">
          <mxGeometry relative="1" as="geometry" />
        </mxCell>
        <mxCell id="d6DUmIdaFf7Irw5CP_DO-12" style="edgeStyle=orthogonalEdgeStyle;rounded=0;orthogonalLoop=1;jettySize=auto;html=1;exitX=1;exitY=0.5;exitDx=0;exitDy=0;entryX=0;entryY=0.5;entryDx=0;entryDy=0;" edge="1" parent="1c1d494c118603dd-1" source="d6DUmIdaFf7Irw5CP_DO-7" target="d6DUmIdaFf7Irw5CP_DO-11">
          <mxGeometry relative="1" as="geometry" />
        </mxCell>
        <mxCell id="1c1d494c118603dd-4" value="&lt;i&gt;System&lt;/i&gt;" style="swimlane;html=1;startSize=20;" parent="1c1d494c118603dd-1" vertex="1">
          <mxGeometry x="320" y="20" width="560" height="1490" as="geometry" />
        </mxCell>
        <mxCell id="60571a20871a0731-5" value="" style="shape=mxgraph.bpmn.shape;html=1;verticalLabelPosition=bottom;labelBackgroundColor=#ffffff;verticalAlign=top;perimeter=ellipsePerimeter;outline=end;symbol=terminate;rounded=0;shadow=0;comic=0;strokeWidth=1;fontFamily=Verdana;fontSize=12;align=center;" parent="1c1d494c118603dd-4" vertex="1">
          <mxGeometry x="232.5" y="1430" width="40" height="40" as="geometry" />
        </mxCell>
        <mxCell id="9redM43dmEc5Fs1zs8RA-4" value="Apakah &lt;i&gt;active role user&lt;/i&gt;&amp;nbsp;memiliki hak mengakses fitur &lt;i&gt;offline mode?&lt;/i&gt;" style="rhombus;whiteSpace=wrap;html=1;" parent="1c1d494c118603dd-4" vertex="1">
          <mxGeometry x="195" y="190" width="170" height="90" as="geometry" />
        </mxCell>
        <mxCell id="d6DUmIdaFf7Irw5CP_DO-9" style="edgeStyle=orthogonalEdgeStyle;rounded=0;orthogonalLoop=1;jettySize=auto;html=1;exitX=0.5;exitY=1;exitDx=0;exitDy=0;entryX=1;entryY=0.5;entryDx=0;entryDy=0;" edge="1" parent="1c1d494c118603dd-4" source="9redM43dmEc5Fs1zs8RA-14" target="60571a20871a0731-5">
          <mxGeometry relative="1" as="geometry">
            <Array as="points">
              <mxPoint x="444" y="500" />
              <mxPoint x="534" y="500" />
              <mxPoint x="534" y="1450" />
            </Array>
          </mxGeometry>
        </mxCell>
        <mxCell id="9redM43dmEc5Fs1zs8RA-14" value="Menyembunyikan menu &lt;i&gt;Offline Mode Configuration &lt;/i&gt;di halaman &lt;i&gt;Setting&lt;/i&gt;" style="rounded=1;whiteSpace=wrap;html=1;shadow=0;comic=0;labelBackgroundColor=none;strokeWidth=1;fontFamily=Verdana;fontSize=12;align=center;arcSize=50;" parent="1c1d494c118603dd-4" vertex="1">
          <mxGeometry x="375" y="330" width="138.75" height="60" as="geometry" />
        </mxCell>
        <mxCell id="9redM43dmEc5Fs1zs8RA-16" value="" style="endArrow=classic;html=1;rounded=0;exitX=0.5;exitY=1;exitDx=0;exitDy=0;edgeStyle=orthogonalEdgeStyle;entryX=0.5;entryY=0;entryDx=0;entryDy=0;" parent="1c1d494c118603dd-4" source="9redM43dmEc5Fs1zs8RA-4" target="9redM43dmEc5Fs1zs8RA-35" edge="1">
          <mxGeometry relative="1" as="geometry">
            <mxPoint x="183.75" y="410" as="sourcePoint" />
            <mxPoint x="75" y="270" as="targetPoint" />
            <Array as="points">
              <mxPoint x="280" y="300" />
              <mxPoint x="110" y="300" />
            </Array>
          </mxGeometry>
        </mxCell>
        <mxCell id="9redM43dmEc5Fs1zs8RA-17" value="Ya" style="edgeLabel;resizable=0;html=1;align=center;verticalAlign=middle;" parent="9redM43dmEc5Fs1zs8RA-16" connectable="0" vertex="1">
          <mxGeometry relative="1" as="geometry" />
        </mxCell>
        <mxCell id="9redM43dmEc5Fs1zs8RA-18" value="" style="endArrow=classic;html=1;rounded=0;exitX=1;exitY=0.5;exitDx=0;exitDy=0;entryX=0.5;entryY=0;entryDx=0;entryDy=0;edgeStyle=orthogonalEdgeStyle;" parent="1c1d494c118603dd-4" source="9redM43dmEc5Fs1zs8RA-4" target="9redM43dmEc5Fs1zs8RA-14" edge="1">
          <mxGeometry relative="1" as="geometry">
            <mxPoint x="180" y="190" as="sourcePoint" />
            <mxPoint x="112.5" y="230" as="targetPoint" />
          </mxGeometry>
        </mxCell>
        <mxCell id="9redM43dmEc5Fs1zs8RA-19" value="Tidak" style="edgeLabel;resizable=0;html=1;align=center;verticalAlign=middle;" parent="9redM43dmEc5Fs1zs8RA-18" connectable="0" vertex="1">
          <mxGeometry relative="1" as="geometry" />
        </mxCell>
        <mxCell id="9redM43dmEc5Fs1zs8RA-35" value="Menampilkan menu &lt;i&gt;Offline Mode Configuration &lt;/i&gt;di halaman &lt;i&gt;Setting&lt;/i&gt;" style="rounded=1;whiteSpace=wrap;html=1;shadow=0;comic=0;labelBackgroundColor=none;strokeWidth=1;fontFamily=Verdana;fontSize=12;align=center;arcSize=50;" parent="1c1d494c118603dd-4" vertex="1">
          <mxGeometry x="36.879999999999995" y="330" width="146.25" height="60" as="geometry" />
        </mxCell>
        <mxCell id="d6DUmIdaFf7Irw5CP_DO-3" style="edgeStyle=orthogonalEdgeStyle;rounded=0;orthogonalLoop=1;jettySize=auto;html=1;exitX=0.5;exitY=1;exitDx=0;exitDy=0;entryX=0.5;entryY=0;entryDx=0;entryDy=0;" edge="1" parent="1c1d494c118603dd-4" source="d6DUmIdaFf7Irw5CP_DO-1" target="9redM43dmEc5Fs1zs8RA-4">
          <mxGeometry relative="1" as="geometry" />
        </mxCell>
        <mxCell id="d6DUmIdaFf7Irw5CP_DO-1" value="Menampilkan halaman S&lt;i&gt;etting&lt;/i&gt;" style="rounded=1;whiteSpace=wrap;html=1;shadow=0;comic=0;labelBackgroundColor=none;strokeWidth=1;fontFamily=Verdana;fontSize=12;align=center;arcSize=50;" vertex="1" parent="1c1d494c118603dd-4">
          <mxGeometry x="201.25" y="98.75" width="157.5" height="47.5" as="geometry" />
        </mxCell>
        <mxCell id="d6DUmIdaFf7Irw5CP_DO-14" style="edgeStyle=orthogonalEdgeStyle;rounded=0;orthogonalLoop=1;jettySize=auto;html=1;exitX=0.5;exitY=1;exitDx=0;exitDy=0;entryX=0.5;entryY=0;entryDx=0;entryDy=0;" edge="1" parent="1c1d494c118603dd-4" source="d6DUmIdaFf7Irw5CP_DO-11" target="d6DUmIdaFf7Irw5CP_DO-13">
          <mxGeometry relative="1" as="geometry" />
        </mxCell>
        <mxCell id="d6DUmIdaFf7Irw5CP_DO-11" value="Menampilkan halaman &lt;i&gt;Offline Mode Configuration&lt;/i&gt;" style="rounded=1;whiteSpace=wrap;html=1;shadow=0;comic=0;labelBackgroundColor=none;strokeWidth=1;fontFamily=Verdana;fontSize=12;align=center;arcSize=50;" vertex="1" parent="1c1d494c118603dd-4">
          <mxGeometry x="31.25" y="433.75" width="157.5" height="47.5" as="geometry" />
        </mxCell>
        <mxCell id="d6DUmIdaFf7Irw5CP_DO-16" style="edgeStyle=orthogonalEdgeStyle;rounded=0;orthogonalLoop=1;jettySize=auto;html=1;exitX=0.5;exitY=1;exitDx=0;exitDy=0;entryX=0.5;entryY=0;entryDx=0;entryDy=0;" edge="1" parent="1c1d494c118603dd-4" source="d6DUmIdaFf7Irw5CP_DO-13" target="d6DUmIdaFf7Irw5CP_DO-15">
          <mxGeometry relative="1" as="geometry" />
        </mxCell>
        <mxCell id="d6DUmIdaFf7Irw5CP_DO-13" value="Menampilkan &lt;i&gt;loading bar&lt;/i&gt;" style="rounded=1;whiteSpace=wrap;html=1;shadow=0;comic=0;labelBackgroundColor=none;strokeWidth=1;fontFamily=Verdana;fontSize=12;align=center;arcSize=50;" vertex="1" parent="1c1d494c118603dd-4">
          <mxGeometry x="31.25" y="520" width="157.5" height="47.5" as="geometry" />
        </mxCell>
        <mxCell id="d6DUmIdaFf7Irw5CP_DO-15" value="Apakah data &lt;br&gt;konfigurasi &lt;i&gt;offline &lt;br&gt;mode&lt;/i&gt;&amp;nbsp;bernilai &lt;i&gt;null?&lt;/i&gt;" style="rhombus;whiteSpace=wrap;html=1;" vertex="1" parent="1c1d494c118603dd-4">
          <mxGeometry x="22.5" y="600" width="175" height="90" as="geometry" />
        </mxCell>
        <mxCell id="d6DUmIdaFf7Irw5CP_DO-25" style="edgeStyle=orthogonalEdgeStyle;rounded=0;orthogonalLoop=1;jettySize=auto;html=1;exitX=0.5;exitY=1;exitDx=0;exitDy=0;entryX=1;entryY=0.5;entryDx=0;entryDy=0;" edge="1" parent="1c1d494c118603dd-4" source="d6DUmIdaFf7Irw5CP_DO-18" target="d6DUmIdaFf7Irw5CP_DO-24">
          <mxGeometry relative="1" as="geometry" />
        </mxCell>
        <mxCell id="d6DUmIdaFf7Irw5CP_DO-18" value="Menampilkan &lt;i&gt;popup &lt;/i&gt;informasi mengenai sistem kerja fitur &lt;i&gt;auto download &lt;/i&gt;pada &lt;i&gt;offline mode&lt;/i&gt;" style="rounded=1;whiteSpace=wrap;html=1;shadow=0;comic=0;labelBackgroundColor=none;strokeWidth=1;fontFamily=Verdana;fontSize=12;align=center;arcSize=50;" vertex="1" parent="1c1d494c118603dd-4">
          <mxGeometry x="335" y="605" width="151.25" height="80" as="geometry" />
        </mxCell>
        <mxCell id="d6DUmIdaFf7Irw5CP_DO-19" value="" style="endArrow=classic;html=1;rounded=0;exitX=1;exitY=0.5;exitDx=0;exitDy=0;edgeStyle=orthogonalEdgeStyle;entryX=0;entryY=0.5;entryDx=0;entryDy=0;" edge="1" parent="1c1d494c118603dd-4" source="d6DUmIdaFf7Irw5CP_DO-15" target="d6DUmIdaFf7Irw5CP_DO-18">
          <mxGeometry relative="1" as="geometry">
            <mxPoint x="44.440000000000055" y="670" as="sourcePoint" />
            <mxPoint x="40" y="740" as="targetPoint" />
            <Array as="points">
              <mxPoint x="205" y="645" />
              <mxPoint x="205" y="645" />
            </Array>
          </mxGeometry>
        </mxCell>
        <mxCell id="d6DUmIdaFf7Irw5CP_DO-20" value="Ya" style="edgeLabel;resizable=0;html=1;align=center;verticalAlign=middle;" connectable="0" vertex="1" parent="d6DUmIdaFf7Irw5CP_DO-19">
          <mxGeometry relative="1" as="geometry" />
        </mxCell>
        <mxCell id="d6DUmIdaFf7Irw5CP_DO-28" style="edgeStyle=orthogonalEdgeStyle;rounded=0;orthogonalLoop=1;jettySize=auto;html=1;exitX=0.5;exitY=1;exitDx=0;exitDy=0;entryX=0.5;entryY=0;entryDx=0;entryDy=0;" edge="1" parent="1c1d494c118603dd-4" source="d6DUmIdaFf7Irw5CP_DO-21" target="d6DUmIdaFf7Irw5CP_DO-27">
          <mxGeometry relative="1" as="geometry" />
        </mxCell>
        <mxCell id="d6DUmIdaFf7Irw5CP_DO-21" value="&lt;i&gt;Fetch &lt;/i&gt;data konfigurasi &lt;i&gt;offline mode&lt;/i&gt;&amp;nbsp;dari &lt;i&gt;API&lt;/i&gt;" style="rounded=1;whiteSpace=wrap;html=1;shadow=0;comic=0;labelBackgroundColor=none;strokeWidth=1;fontFamily=Verdana;fontSize=12;align=center;arcSize=50;" vertex="1" parent="1c1d494c118603dd-4">
          <mxGeometry x="181.25" y="770" width="157.5" height="47.5" as="geometry" />
        </mxCell>
        <mxCell id="d6DUmIdaFf7Irw5CP_DO-22" value="" style="endArrow=classic;html=1;rounded=0;exitX=0.5;exitY=1;exitDx=0;exitDy=0;edgeStyle=orthogonalEdgeStyle;entryX=0;entryY=0.5;entryDx=0;entryDy=0;" edge="1" parent="1c1d494c118603dd-4" source="d6DUmIdaFf7Irw5CP_DO-15" target="d6DUmIdaFf7Irw5CP_DO-24">
          <mxGeometry relative="1" as="geometry">
            <mxPoint x="114.99" y="710" as="sourcePoint" />
            <mxPoint x="224" y="730" as="targetPoint" />
            <Array as="points">
              <mxPoint x="110" y="714" />
            </Array>
          </mxGeometry>
        </mxCell>
        <mxCell id="d6DUmIdaFf7Irw5CP_DO-23" value="Tidak" style="edgeLabel;resizable=0;html=1;align=center;verticalAlign=middle;" connectable="0" vertex="1" parent="d6DUmIdaFf7Irw5CP_DO-22">
          <mxGeometry relative="1" as="geometry" />
        </mxCell>
        <mxCell id="d6DUmIdaFf7Irw5CP_DO-26" style="edgeStyle=orthogonalEdgeStyle;rounded=0;orthogonalLoop=1;jettySize=auto;html=1;exitX=0.5;exitY=1;exitDx=0;exitDy=0;entryX=0.5;entryY=0;entryDx=0;entryDy=0;" edge="1" parent="1c1d494c118603dd-4" source="d6DUmIdaFf7Irw5CP_DO-24" target="d6DUmIdaFf7Irw5CP_DO-21">
          <mxGeometry relative="1" as="geometry" />
        </mxCell>
        <mxCell id="d6DUmIdaFf7Irw5CP_DO-24" value="" style="rhombus;whiteSpace=wrap;html=1;" vertex="1" parent="1c1d494c118603dd-4">
          <mxGeometry x="235" y="689" width="50" height="50" as="geometry" />
        </mxCell>
        <mxCell id="d6DUmIdaFf7Irw5CP_DO-27" value="Apakah data &lt;br&gt;konfigurasi &lt;i&gt;offline &lt;br&gt;mode &lt;/i&gt;bernilai &lt;i&gt;null?&lt;/i&gt;" style="rhombus;whiteSpace=wrap;html=1;" vertex="1" parent="1c1d494c118603dd-4">
          <mxGeometry x="172.5" y="860" width="175" height="90" as="geometry" />
        </mxCell>
        <mxCell id="d6DUmIdaFf7Irw5CP_DO-29" value="" style="endArrow=classic;html=1;rounded=0;exitX=0;exitY=0.5;exitDx=0;exitDy=0;edgeStyle=orthogonalEdgeStyle;entryX=0.5;entryY=0;entryDx=0;entryDy=0;" edge="1" parent="1c1d494c118603dd-4" source="d6DUmIdaFf7Irw5CP_DO-27" target="d6DUmIdaFf7Irw5CP_DO-33">
          <mxGeometry relative="1" as="geometry">
            <mxPoint x="222.5" y="969.9999999999998" as="sourcePoint" />
            <mxPoint x="223" y="1010" as="targetPoint" />
            <Array as="points" />
          </mxGeometry>
        </mxCell>
        <mxCell id="d6DUmIdaFf7Irw5CP_DO-30" value="Tidak" style="edgeLabel;resizable=0;html=1;align=center;verticalAlign=middle;" connectable="0" vertex="1" parent="d6DUmIdaFf7Irw5CP_DO-29">
          <mxGeometry relative="1" as="geometry">
            <mxPoint y="7" as="offset" />
          </mxGeometry>
        </mxCell>
        <mxCell id="d6DUmIdaFf7Irw5CP_DO-31" value="" style="endArrow=classic;html=1;rounded=0;exitX=1;exitY=0.5;exitDx=0;exitDy=0;edgeStyle=orthogonalEdgeStyle;entryX=0.5;entryY=0;entryDx=0;entryDy=0;" edge="1" parent="1c1d494c118603dd-4" source="d6DUmIdaFf7Irw5CP_DO-27" target="d6DUmIdaFf7Irw5CP_DO-78">
          <mxGeometry relative="1" as="geometry">
            <mxPoint x="325" y="914.6799999999998" as="sourcePoint" />
            <mxPoint x="444" y="1070" as="targetPoint" />
            <Array as="points" />
          </mxGeometry>
        </mxCell>
        <mxCell id="d6DUmIdaFf7Irw5CP_DO-32" value="Ya" style="edgeLabel;resizable=0;html=1;align=center;verticalAlign=middle;" connectable="0" vertex="1" parent="d6DUmIdaFf7Irw5CP_DO-31">
          <mxGeometry relative="1" as="geometry">
            <mxPoint x="1" as="offset" />
          </mxGeometry>
        </mxCell>
        <mxCell id="d6DUmIdaFf7Irw5CP_DO-33" value="Apakah ada &lt;br&gt;perbedaan nilai &lt;i&gt;lastUpdatedDate&lt;/i&gt;&amp;nbsp;antara data &lt;br&gt;dari API dan data yang &lt;br&gt;disimpan lokal?" style="rhombus;whiteSpace=wrap;html=1;" vertex="1" parent="1c1d494c118603dd-4">
          <mxGeometry x="20" y="950" width="205" height="110" as="geometry" />
        </mxCell>
        <mxCell id="d6DUmIdaFf7Irw5CP_DO-76" value="" style="endArrow=classic;html=1;rounded=0;exitX=0.5;exitY=1;exitDx=0;exitDy=0;edgeStyle=orthogonalEdgeStyle;entryX=0;entryY=0.5;entryDx=0;entryDy=0;" edge="1" parent="1c1d494c118603dd-4" source="d6DUmIdaFf7Irw5CP_DO-33" target="d6DUmIdaFf7Irw5CP_DO-83">
          <mxGeometry relative="1" as="geometry">
            <mxPoint x="219.76999999999998" y="1070" as="sourcePoint" />
            <mxPoint x="219.76999999999998" y="1125" as="targetPoint" />
            <Array as="points" />
          </mxGeometry>
        </mxCell>
        <mxCell id="d6DUmIdaFf7Irw5CP_DO-77" value="Nilai sama" style="edgeLabel;resizable=0;html=1;align=center;verticalAlign=middle;" connectable="0" vertex="1" parent="d6DUmIdaFf7Irw5CP_DO-76">
          <mxGeometry relative="1" as="geometry">
            <mxPoint x="17" as="offset" />
          </mxGeometry>
        </mxCell>
        <mxCell id="d6DUmIdaFf7Irw5CP_DO-79" style="edgeStyle=orthogonalEdgeStyle;rounded=0;orthogonalLoop=1;jettySize=auto;html=1;exitX=0.5;exitY=1;exitDx=0;exitDy=0;entryX=1;entryY=0.5;entryDx=0;entryDy=0;" edge="1" parent="1c1d494c118603dd-4" source="d6DUmIdaFf7Irw5CP_DO-78" target="d6DUmIdaFf7Irw5CP_DO-83">
          <mxGeometry relative="1" as="geometry" />
        </mxCell>
        <mxCell id="d6DUmIdaFf7Irw5CP_DO-78" value="Menyimpan&amp;nbsp;data konfigurasi &lt;i&gt;offline mode&lt;/i&gt;&amp;nbsp;dari &lt;i&gt;API &lt;/i&gt;ke dalam &lt;i&gt;database &lt;/i&gt;lokal" style="rounded=1;whiteSpace=wrap;html=1;shadow=0;comic=0;labelBackgroundColor=none;strokeWidth=1;fontFamily=Verdana;fontSize=12;align=center;arcSize=50;" vertex="1" parent="1c1d494c118603dd-4">
          <mxGeometry x="326.25" y="970" width="157.5" height="70" as="geometry" />
        </mxCell>
        <mxCell id="d6DUmIdaFf7Irw5CP_DO-81" value="" style="endArrow=classic;html=1;rounded=0;exitX=1;exitY=0.5;exitDx=0;exitDy=0;edgeStyle=orthogonalEdgeStyle;entryX=0;entryY=0.5;entryDx=0;entryDy=0;" edge="1" parent="1c1d494c118603dd-4" source="d6DUmIdaFf7Irw5CP_DO-33" target="d6DUmIdaFf7Irw5CP_DO-78">
          <mxGeometry relative="1" as="geometry">
            <mxPoint x="225" y="1004.8199999999999" as="sourcePoint" />
            <mxPoint x="362.5" y="1004.8199999999999" as="targetPoint" />
            <Array as="points" />
          </mxGeometry>
        </mxCell>
        <mxCell id="d6DUmIdaFf7Irw5CP_DO-82" value="Nilai beda" style="edgeLabel;resizable=0;html=1;align=center;verticalAlign=middle;" connectable="0" vertex="1" parent="d6DUmIdaFf7Irw5CP_DO-81">
          <mxGeometry relative="1" as="geometry" />
        </mxCell>
        <mxCell id="d6DUmIdaFf7Irw5CP_DO-85" style="edgeStyle=orthogonalEdgeStyle;rounded=0;orthogonalLoop=1;jettySize=auto;html=1;exitX=0.5;exitY=1;exitDx=0;exitDy=0;entryX=0.5;entryY=0;entryDx=0;entryDy=0;" edge="1" parent="1c1d494c118603dd-4" source="d6DUmIdaFf7Irw5CP_DO-83" target="d6DUmIdaFf7Irw5CP_DO-84">
          <mxGeometry relative="1" as="geometry" />
        </mxCell>
        <mxCell id="d6DUmIdaFf7Irw5CP_DO-83" value="" style="rhombus;whiteSpace=wrap;html=1;" vertex="1" parent="1c1d494c118603dd-4">
          <mxGeometry x="232.5" y="1070" width="50" height="50" as="geometry" />
        </mxCell>
        <mxCell id="d6DUmIdaFf7Irw5CP_DO-87" style="edgeStyle=orthogonalEdgeStyle;rounded=0;orthogonalLoop=1;jettySize=auto;html=1;exitX=0.5;exitY=1;exitDx=0;exitDy=0;entryX=0.5;entryY=0;entryDx=0;entryDy=0;" edge="1" parent="1c1d494c118603dd-4" source="d6DUmIdaFf7Irw5CP_DO-84" target="d6DUmIdaFf7Irw5CP_DO-86">
          <mxGeometry relative="1" as="geometry" />
        </mxCell>
        <mxCell id="d6DUmIdaFf7Irw5CP_DO-84" value="Menyembunyikan&amp;nbsp;&lt;br&gt;&lt;i&gt;loading bar&lt;/i&gt;" style="rounded=1;whiteSpace=wrap;html=1;shadow=0;comic=0;labelBackgroundColor=none;strokeWidth=1;fontFamily=Verdana;fontSize=12;align=center;arcSize=50;" vertex="1" parent="1c1d494c118603dd-4">
          <mxGeometry x="192.5" y="1150" width="128.75" height="47.5" as="geometry" />
        </mxCell>
        <mxCell id="d6DUmIdaFf7Irw5CP_DO-86" value="Apakah data &lt;br&gt;konfigurasi &lt;i&gt;offline &lt;br&gt;mode &lt;/i&gt;bernilai &lt;i&gt;null?&lt;/i&gt;" style="rhombus;whiteSpace=wrap;html=1;" vertex="1" parent="1c1d494c118603dd-4">
          <mxGeometry x="170" y="1230" width="175" height="90" as="geometry" />
        </mxCell>
        <mxCell id="d6DUmIdaFf7Irw5CP_DO-94" style="edgeStyle=orthogonalEdgeStyle;rounded=0;orthogonalLoop=1;jettySize=auto;html=1;exitX=0.5;exitY=1;exitDx=0;exitDy=0;entryX=0;entryY=0.5;entryDx=0;entryDy=0;" edge="1" parent="1c1d494c118603dd-4" source="d6DUmIdaFf7Irw5CP_DO-88" target="60571a20871a0731-5">
          <mxGeometry relative="1" as="geometry" />
        </mxCell>
        <mxCell id="d6DUmIdaFf7Irw5CP_DO-88" value="Menampilkan &lt;i&gt;list &lt;/i&gt;konfigurasi &lt;i&gt;offline mode&lt;/i&gt;" style="rounded=1;whiteSpace=wrap;html=1;shadow=0;comic=0;labelBackgroundColor=none;strokeWidth=1;fontFamily=Verdana;fontSize=12;align=center;arcSize=50;" vertex="1" parent="1c1d494c118603dd-4">
          <mxGeometry x="52.5" y="1340" width="128.75" height="47.5" as="geometry" />
        </mxCell>
        <mxCell id="d6DUmIdaFf7Irw5CP_DO-95" style="edgeStyle=orthogonalEdgeStyle;rounded=0;orthogonalLoop=1;jettySize=auto;html=1;exitX=0.5;exitY=1;exitDx=0;exitDy=0;entryX=0.5;entryY=0;entryDx=0;entryDy=0;" edge="1" parent="1c1d494c118603dd-4" source="d6DUmIdaFf7Irw5CP_DO-89" target="60571a20871a0731-5">
          <mxGeometry relative="1" as="geometry" />
        </mxCell>
        <mxCell id="d6DUmIdaFf7Irw5CP_DO-89" value="Menampilkan teks &#39;No Data Yet&#39;" style="rounded=1;whiteSpace=wrap;html=1;shadow=0;comic=0;labelBackgroundColor=none;strokeWidth=1;fontFamily=Verdana;fontSize=12;align=center;arcSize=50;" vertex="1" parent="1c1d494c118603dd-4">
          <mxGeometry x="340.63" y="1340" width="128.75" height="47.5" as="geometry" />
        </mxCell>
        <mxCell id="d6DUmIdaFf7Irw5CP_DO-90" value="" style="endArrow=classic;html=1;rounded=0;exitX=1;exitY=0.5;exitDx=0;exitDy=0;edgeStyle=orthogonalEdgeStyle;entryX=0.5;entryY=0;entryDx=0;entryDy=0;" edge="1" parent="1c1d494c118603dd-4" source="d6DUmIdaFf7Irw5CP_DO-86" target="d6DUmIdaFf7Irw5CP_DO-89">
          <mxGeometry relative="1" as="geometry">
            <mxPoint x="358.75" y="1275" as="sourcePoint" />
            <mxPoint x="416.25" y="1340" as="targetPoint" />
            <Array as="points" />
          </mxGeometry>
        </mxCell>
        <mxCell id="d6DUmIdaFf7Irw5CP_DO-91" value="Ya" style="edgeLabel;resizable=0;html=1;align=center;verticalAlign=middle;" connectable="0" vertex="1" parent="d6DUmIdaFf7Irw5CP_DO-90">
          <mxGeometry relative="1" as="geometry">
            <mxPoint y="22" as="offset" />
          </mxGeometry>
        </mxCell>
        <mxCell id="d6DUmIdaFf7Irw5CP_DO-92" value="" style="endArrow=classic;html=1;rounded=0;exitX=0;exitY=0.5;exitDx=0;exitDy=0;edgeStyle=orthogonalEdgeStyle;entryX=0.5;entryY=0;entryDx=0;entryDy=0;" edge="1" parent="1c1d494c118603dd-4" source="d6DUmIdaFf7Irw5CP_DO-86" target="d6DUmIdaFf7Irw5CP_DO-88">
          <mxGeometry relative="1" as="geometry">
            <mxPoint x="165.01999999999975" y="1275" as="sourcePoint" />
            <mxPoint x="115.01999999999998" y="1320" as="targetPoint" />
            <Array as="points" />
          </mxGeometry>
        </mxCell>
        <mxCell id="d6DUmIdaFf7Irw5CP_DO-93" value="Tidak" style="edgeLabel;resizable=0;html=1;align=center;verticalAlign=middle;" connectable="0" vertex="1" parent="d6DUmIdaFf7Irw5CP_DO-92">
          <mxGeometry relative="1" as="geometry">
            <mxPoint y="19" as="offset" />
          </mxGeometry>
        </mxCell>
      </root>
    </mxGraphModel>
  </diagram>
</mxfile>
